<?xml version="1.0" standalone="no"?>
<!DOCTYPE svg PUBLIC "-//W3C//DTD SVG 20010904//EN"
 "http://www.w3.org/TR/2001/REC-SVG-20010904/DTD/svg10.dtd">
<svg version="1.0" xmlns="http://www.w3.org/2000/svg"
 width="512.000000pt" height="512.000000pt" viewBox="0 0 512.000000 512.000000"
 preserveAspectRatio="xMidYMid meet">

<g transform="translate(0.000000,512.000000) scale(0.100000,-0.100000)"
fill="#000000" stroke="none">
<path d="M1947 3709 c-23 -24 -36 -47 -41 -77 -10 -63 -48 -132 -99 -179 -53
-49 -101 -75 -181 -98 -75 -22 -96 -43 -96 -98 0 -79 63 -110 176 -87 95 19
197 73 273 146 73 68 85 72 156 53 56 -16 128 -90 151 -156 l19 -53 102 0 c56
0 104 3 106 8 10 16 -24 136 -54 193 -59 109 -154 171 -299 194 l-36 5 1 60
c0 51 -4 63 -26 86 -18 18 -41 28 -73 31 -42 5 -48 3 -79 -28z"/>
<path d="M3353 3716 l-28 -24 -3 -491 -3 -491 106 0 105 0 2 228 3 227 43 6
c119 16 98 189 -24 189 l-24 0 0 161 0 161 -29 29 c-39 39 -106 41 -148 5z"/>
<path d="M2710 3703 c-54 -9 -83 -27 -96 -59 -11 -26 -14 -114 -14 -416 0
-432 1 -442 70 -465 48 -16 499 -18 534 -2 47 22 58 108 19 152 -14 15 -38 17
-202 17 -102 0 -192 4 -199 8 -9 7 -12 72 -10 293 l3 284 167 5 c158 5 169 6
190 28 32 32 32 102 0 134 -22 22 -28 23 -230 24 -114 1 -218 0 -232 -3z"/>
<path d="M1564 3110 c-56 -23 -72 -103 -29 -145 24 -25 27 -25 200 -25 l175 0
0 -120 0 -120 110 0 110 0 0 120 0 120 174 0 c96 0 182 3 191 6 47 18 55 112
14 150 -20 18 -46 19 -473 21 -248 1 -461 -2 -472 -7z"/>
<path d="M2339 2381 c-27 -27 -29 -35 -29 -100 l0 -71 -57 0 c-67 0 -78 -5
-92 -43 -22 -57 12 -96 93 -104 l56 -6 0 -93 0 -94 105 0 105 0 0 230 c0 187
-3 237 -15 260 -19 37 -43 50 -95 50 -33 0 -48 -6 -71 -29z"/>
<path d="M3383 2386 l-28 -24 -3 -491 -3 -491 106 0 105 0 0 486 0 486 -29 29
c-39 39 -106 41 -148 5z"/>
<path d="M1616 2380 c-72 -14 -76 -26 -76 -246 0 -189 0 -193 24 -221 l24 -28
316 -3 316 -3 25 25 c31 31 33 78 5 106 -17 17 -33 20 -110 20 l-91 0 3 103 3
102 68 5 c77 6 97 21 97 74 0 40 -9 52 -43 65 -32 13 -499 13 -561 1z m244
-245 l0 -105 -65 0 -65 0 0 98 c0 54 3 102 7 105 3 4 33 7 65 7 l58 0 0 -105z"/>
<path d="M2624 2347 c-40 -35 -40 -95 -1 -134 27 -28 29 -28 185 -33 l157 -5
0 -165 c0 -132 -4 -175 -18 -215 -35 -103 -113 -163 -238 -185 -92 -16 -98
-18 -114 -50 -21 -41 -19 -75 9 -107 23 -27 28 -28 108 -27 184 4 339 97 413
248 49 101 59 165 59 386 1 224 -3 244 -57 284 -27 20 -43 21 -252 24 l-223 3
-28 -24z"/>
<path d="M1607 1822 c-21 -23 -22 -62 -3 -88 14 -18 31 -19 355 -22 327 -3
341 -4 341 -22 0 -18 -13 -19 -312 -22 -338 -3 -354 -6 -392 -60 -23 -32 -21
-125 3 -164 39 -64 44 -65 507 -62 l418 3 16 28 c13 24 13 30 0 55 l-16 27
-351 3 c-291 2 -353 5 -363 17 -6 8 -9 19 -5 25 4 6 125 10 361 10 l354 0 0
104 c0 58 -4 116 -10 131 -20 52 -43 55 -483 55 -379 0 -405 -1 -420 -18z"/>
<path d="M2300 1071 c0 -5 -10 -11 -22 -13 -30 -4 -35 -34 -9 -43 27 -8 27
-39 -1 -57 -14 -9 -19 -20 -15 -31 7 -19 30 -14 60 12 17 14 19 14 28 -2 12
-21 49 -23 49 -2 0 9 -12 27 -27 41 -28 26 -28 26 4 43 26 13 21 41 -7 41 -11
0 -22 5 -25 10 -8 13 -35 13 -35 1z"/>
<path d="M2405 1058 c-3 -13 -5 -51 -3 -83 3 -53 5 -60 26 -63 19 -3 22 1 22
32 0 48 18 46 22 -1 2 -30 7 -38 23 -38 18 0 20 8 23 75 1 41 -2 81 -7 89 -14
21 -41 5 -41 -24 0 -34 -18 -32 -22 2 -4 36 -35 43 -43 11z"/>
<path d="M2557 1073 c-4 -3 -7 -26 -7 -49 l0 -43 50 -7 c61 -8 56 -24 -9 -24
-53 0 -66 -7 -50 -27 8 -9 42 -13 124 -13 122 0 145 4 145 26 0 10 -15 14 -55
14 -67 0 -73 18 -7 22 l47 3 3 40 c3 54 -10 74 -38 58 -24 -15 -156 -17 -165
-3 -7 11 -28 13 -38 3z m183 -53 c0 -6 -30 -10 -70 -10 -40 0 -70 4 -70 10 0
6 30 10 70 10 40 0 70 -4 70 -10z"/>
<path d="M2357 875 c-12 -16 -32 -27 -58 -31 -29 -5 -39 -11 -37 -23 5 -25 56
-25 110 0 l48 23 30 -22 c33 -25 70 -29 70 -9 0 18 -42 57 -61 57 -8 0 -24 7
-35 15 -27 21 -46 18 -67 -10z"/>
<path d="M2645 881 c-6 -18 -39 -37 -80 -43 -11 -2 -20 -10 -20 -18 0 -21 67
-25 104 -6 38 20 75 20 91 1 16 -19 60 -20 60 -1 0 20 -48 56 -75 56 -13 0
-25 7 -29 15 -8 21 -44 19 -51 -4z"/>
</g>
</svg>
